<svg width="500" height="323" viewBox="0 0 500 323" fill="none" xmlns="http://www.w3.org/2000/svg">
<g clip-path="url(#clip0)">
<path d="M252.105 196.468L10 103.68H46.6316L252.105 177.378L449.158 103.68H490L252.105 196.468Z" fill="#B20F22"/>
<path d="M251.655 10L10 103.68H46.5635L251.655 29.2739L448.342 103.68H489.108L251.655 10Z" fill="#B20F22"/>
<path fill-rule="evenodd" clip-rule="evenodd" d="M131.338 161.673L252.23 201.822L373.123 161.673L398.55 237.509L252.23 303.085L105.911 237.509L131.338 161.673ZM252.23 283.011L377.138 230.818L363.755 179.963L252.23 221.45L140.706 179.963L127.323 230.818L252.23 283.011Z" fill="#B20F22"/>
<path d="M69.777 301.818L79.5911 190.98H72.8997L58.1785 312.318H79.5911V301.818H69.777Z" fill="#B20F22"/>
<path d="M89.4052 301.818L79.5911 190.98H86.2825L101.004 312.318H79.5911V301.818H89.4052Z" fill="#B20F22"/>
<circle cx="79.5911" cy="175.948" r="14.2751" stroke="#B20F22" stroke-width="10"/>
<path d="M72.4536 161.673H87.6208L84.461 125.093H75.6134L72.4536 161.673Z" fill="#B20F22"/>
<circle cx="252.23" cy="104.126" r="20.9665" stroke="#B20F22" stroke-width="8"/>
<path d="M316.022 104.386C265.849 147.72 237.719 149.57 187.546 104.386C189.821 102.416 192.05 100.53 194.238 98.7296C240.924 60.3017 268.733 60.5502 316.022 104.386Z" stroke="#B20F22" stroke-width="10"/>
</g>
<defs>
<clipPath id="clip0">
<rect width="500" height="322.32" fill="white"/>
</clipPath>
</defs>
</svg>
